<svg width="24" height="24" viewBox="0 0 24 24" fill="none" xmlns="http://www.w3.org/2000/svg">
<path fill-rule="evenodd" clip-rule="evenodd" d="M21.7511 21.7511C22.083 21.4191 22.083 20.8809 21.7511 20.549L3.45104 2.24902C3.11909 1.91707 2.5809 1.91708 2.24896 2.24902C1.91701 2.58097 1.91701 3.11916 2.24896 3.4511L5.25465 6.45679C3.32121 7.70024 1.90103 9.54229 1 12C2.86206 17.0782 7.43872 19.4222 11.9998 19.5C13.766 19.5301 15.554 19.1562 17.1863 18.3884L20.549 21.7511C20.8809 22.083 21.4191 22.083 21.7511 21.7511ZM14.8832 16.0853L13.4337 14.6358C13.0077 14.868 12.5192 15 11.9998 15C10.343 15 8.99976 13.6569 8.99976 12C8.99976 11.4806 9.13173 10.9921 9.36398 10.5661L7.91445 9.11658C7.3383 9.93139 6.99976 10.9262 6.99976 12C6.99976 14.7614 9.23853 17 11.9998 17C13.0737 17 14.0684 16.6615 14.8832 16.0853Z" fill="#F5F5F5"/>
<path d="M20.0046 16.5046C21.2817 15.3369 22.3281 13.8326 23 12C21.1484 6.95074 16.4961 4.5 11.9998 4.5C10.8354 4.5 9.64819 4.66431 8.49561 4.99554L10.6768 7.17688C11.0981 7.06158 11.5417 7 11.9998 7C14.7612 7 16.9998 9.23859 16.9998 12C16.9998 12.4579 16.9382 12.9015 16.823 13.3229L20.0046 16.5046Z" fill="#F5F5F5"/>
</svg>
