<svg width="24" height="24" viewBox="0 0 24 24" fill="none" xmlns="http://www.w3.org/2000/svg">
<path d="M12 15C13.6568 15 15 13.6569 15 12C15 10.3431 13.6568 9 12 9C10.3431 9 9 10.3431 9 12C9 13.6569 10.3431 15 12 15Z" fill="#F5F5F5"/>
<path fill-rule="evenodd" clip-rule="evenodd" d="M1 12C3 7 7.50367 4.5 12 4.5C16.4963 4.5 21 7 23 12C21 17 16.5092 19.577 12 19.5C7.43878 19.4222 3 17 1 12ZM17 12C17 14.7614 14.7614 17 12 17C9.23857 17 7 14.7614 7 12C7 9.23858 9.23857 7 12 7C14.7614 7 17 9.23858 17 12Z" fill="#F5F5F5"/>
</svg>
