<svg width="24" height="24" viewBox="0 0 24 24" fill="none" xmlns="http://www.w3.org/2000/svg">
<path fill-rule="evenodd" clip-rule="evenodd" d="M12 22C17.5228 22 22 17.5228 22 12C22 6.47717 17.5228 2 12 2C6.47717 2 2 6.47717 2 12C2 17.5228 6.47717 22 12 22ZM12 8C10.8954 8 10 8.89545 10 10H8C8 7.79083 9.79089 6 12 6H12.5C14.7091 6 16.5 7.79083 16.5 10C16.5 12.2092 14.7091 14 12.5 14H11V13C11 12.4477 11.4478 12 12 12H12.5C13.6046 12 14.5 11.1046 14.5 10C14.5 8.89545 13.6046 8 12.5 8H12ZM13 16V18H11V16H13Z" fill="#F5F5F5"/>
</svg>
