<svg width="24" height="24" viewBox="0 0 24 24" fill="none" xmlns="http://www.w3.org/2000/svg">
<path d="M11 3H13V9H11V3Z" fill="#111111"/>
<path d="M11 14.2235V9H6C4.34315 9 3 10.3431 3 12V17C3 18.6569 4.34315 20 6 20H18C19.6569 20 21 18.6569 21 17V12C21 10.3431 19.6569 9 18 9H13V14.2236L15.1507 12.6622C15.5306 12.3864 16.0621 12.4707 16.3379 12.8506C16.6137 13.2305 16.5293 13.762 16.1495 14.0378L12.0001 17L7.85068 14.0378C7.4708 13.762 7.38642 13.2305 7.66223 12.8506C7.93803 12.4707 8.46956 12.3864 8.84944 12.6622L11 14.2235Z" fill="#111111"/>
</svg>
