<svg width="24" height="24" viewBox="0 0 24 24" fill="none" xmlns="http://www.w3.org/2000/svg">
<path fill-rule="evenodd" clip-rule="evenodd" d="M16.664 5.47295L12 2L7.33614 5.47295C6.96221 5.75677 6.88917 6.28998 7.17299 6.66391C7.45682 7.03783 7.99003 7.11088 8.36395 6.82705L11 4.85003V10H6C4.34315 10 3 11.3431 3 13L3 17C3 18.6569 4.34315 20 6 20H18C19.6569 20 21 18.6569 21 17V13C21 11.3431 19.6569 10 18 10H13V4.84995L15.6362 6.82705C16.0101 7.11088 16.5433 7.03783 16.8271 6.66391C17.1109 6.28998 17.0379 5.75677 16.664 5.47295ZM13 10V16H11V10H13Z" fill="#111111"/>
</svg>
