<svg width="24" height="24" viewBox="0 0 24 24" fill="none" xmlns="http://www.w3.org/2000/svg">
<path d="M9.99368 3.76124C11.1698 2.69894 12.9852 2.73441 14.1187 3.86769L17.4595 7.20851C17.6734 7.29851 17.8429 7.46986 17.9341 7.68312L20.1324 9.88136L20.2388 9.99367C21.2667 11.1318 21.2667 12.8682 20.2388 14.0064L20.1324 14.1187L14.1187 20.1323L14.0064 20.2388C12.8682 21.2667 11.1318 21.2668 9.99368 20.2388L9.88138 20.1323L3.86771 14.1187C2.7345 12.9852 2.69909 11.1698 3.76126 9.99367L3.86771 9.88136L6.03568 7.71242C6.12639 7.47676 6.31364 7.28936 6.54935 7.19874L9.88138 3.86769L9.99368 3.76124ZM9.74466 16.3804L9.68118 16.4331C9.52729 16.5478 9.3394 16.6099 9.14603 16.6099H8.89017L11.147 18.8667C11.6181 19.3376 12.3819 19.3376 12.8531 18.8667L15.1099 16.6099H14.8365L14.7544 16.606C14.5633 16.5883 14.3816 16.5098 14.2378 16.3804L11.9917 14.3589L9.74466 16.3804ZM5.13333 11.147C4.6624 11.6181 4.66241 12.3819 5.13333 12.853L7.10111 14.8208H8.80228L11.3931 12.4898C11.7334 12.1836 12.25 12.1837 12.5904 12.4898L15.1802 14.8208H16.899L18.8667 12.853C19.3376 12.3819 19.3376 11.6181 18.8667 11.147L16.648 8.92824H15.1812L12.5904 11.2593C12.2501 11.5656 11.7334 11.5655 11.3931 11.2593L8.80325 8.92824H7.35208L5.13333 11.147ZM12.8531 5.13331C12.3819 4.66238 11.6181 4.6624 11.147 5.13331L9.14114 7.13917H9.147L9.22904 7.14308C9.42016 7.16079 9.60188 7.23928 9.74564 7.36867L11.9917 9.39015L14.2388 7.36867L14.3023 7.31593C14.4561 7.20136 14.6441 7.13917 14.8374 7.13917H14.8589L12.8531 5.13331Z" fill="#111111"/>
</svg>
