<svg width="24" height="24" viewBox="0 0 24 24" fill="none" xmlns="http://www.w3.org/2000/svg">
<path fill-rule="evenodd" clip-rule="evenodd" d="M5 9C5 8.44772 5.44772 8 6 8H18C18.5523 8 19 8.44772 19 9V15C19 15.5523 18.5523 16 18 16H6C5.44772 16 5 15.5523 5 15V9ZM16 13C16.5523 13 17 12.5523 17 12C17 11.4477 16.5523 11 16 11C15.4477 11 15 11.4477 15 12C15 12.5523 15.4477 13 16 13Z" fill="#111111"/>
<path fill-rule="evenodd" clip-rule="evenodd" d="M5 5C3.34315 5 2 6.34315 2 8V16C2 17.6569 3.34315 19 5 19H19C20.6569 19 22 17.6569 22 16V8C22 6.34315 20.6569 5 19 5H5ZM5.5 7C4.67157 7 4 7.67157 4 8.5V15.5C4 16.3284 4.67157 17 5.5 17H18.5C19.3284 17 20 16.3284 20 15.5V8.5C20 7.67157 19.3284 7 18.5 7H5.5Z" fill="#111111"/>
</svg>
